<?xml version="1.0" standalone="no"?>
<!DOCTYPE svg PUBLIC "-//W3C//DTD SVG 20010904//EN"
 "http://www.w3.org/TR/2001/REC-SVG-20010904/DTD/svg10.dtd">
<svg version="1.0" xmlns="http://www.w3.org/2000/svg"
 width="500.000000pt" height="500.000000pt" viewBox="0 0 500.000000 500.000000"
 preserveAspectRatio="xMidYMid meet">

<g transform="translate(0.000000,500.000000) scale(0.100000,-0.100000)"
fill="#000000" stroke="none">
<path d="M2606 4869 c-152 -51 -223 -93 -408 -240 l-33 -27 -93 24 c-166 42
-366 47 -565 13 l-69 -11 -42 40 c-63 61 -155 116 -245 145 -86 29 -226 55
-237 44 -11 -11 25 -250 51 -343 14 -49 43 -126 65 -171 l40 -81 -24 -94 c-35
-134 -41 -224 -22 -337 9 -52 15 -95 14 -96 -2 -1 -39 -8 -83 -16 -63 -11 -80
-18 -83 -33 -7 -33 11 -37 103 -20 84 16 89 16 102 -2 19 -26 16 -34 -16 -45
-66 -23 -156 -76 -159 -93 -8 -38 15 -36 110 9 52 25 102 45 109 44 8 0 27
-16 42 -34 l28 -34 -50 -53 c-53 -56 -63 -81 -34 -93 13 -4 31 9 70 52 l51 58
35 -33 c19 -19 48 -57 63 -85 28 -50 29 -57 28 -177 -1 -118 -4 -137 -62 -360
-79 -307 -95 -415 -96 -615 0 -286 51 -487 225 -876 108 -243 124 -333 128
-711 l2 -207 -48 -6 c-114 -16 -153 -45 -161 -123 -4 -41 0 -52 23 -80 33 -40
92 -58 233 -72 59 -6 127 -12 151 -15 193 -19 759 -14 1126 11 356 24 665 55
738 75 157 42 323 201 403 388 53 123 96 291 108 421 3 36 8 92 11 124 3 33 1
104 -5 159 -42 380 -218 691 -679 1197 -141 155 -221 265 -281 385 -63 129
-83 208 -78 305 8 128 80 229 206 288 50 24 69 27 162 27 89 0 111 -3 146 -22
96 -51 148 -150 147 -280 -1 -127 -64 -217 -162 -230 -36 -5 -44 -2 -75 29
-67 67 -61 130 19 215 65 68 84 116 64 159 -21 42 -54 56 -125 51 -120 -9
-238 -88 -291 -196 -24 -48 -28 -68 -27 -141 0 -70 5 -95 27 -143 86 -189 378
-302 581 -226 180 67 290 256 289 494 -1 176 -59 320 -176 436 -249 249 -743
196 -963 -104 -91 -123 -130 -257 -121 -417 8 -136 34 -228 107 -375 67 -133
153 -258 262 -382 40 -45 120 -135 178 -200 308 -346 473 -646 487 -887 17
-284 -201 -786 -341 -786 -43 0 -66 29 -73 93 -2 23 8 139 22 257 34 267 41
505 19 640 -33 205 -159 505 -303 720 -121 182 -313 381 -606 627 -136 114
-174 161 -205 254 -30 87 -38 221 -16 273 17 41 113 176 125 176 4 0 36 -27
70 -60 65 -62 87 -72 98 -44 4 11 -17 39 -68 90 -88 89 -85 107 12 68 35 -14
80 -34 100 -45 37 -19 59 -12 59 19 0 12 -154 92 -178 92 -19 0 -23 18 -11 44
14 30 25 31 124 12 78 -15 95 -13 95 15 0 24 -4 25 -105 42 -69 12 -80 16 -78
33 19 165 8 274 -36 378 l-19 44 45 67 c60 90 98 173 123 270 24 91 36 252 23
307 l-8 37 -89 -30z m-1476 -238 c52 -20 130 -76 130 -93 0 -6 -17 -30 -38
-52 -22 -23 -44 -51 -50 -62 -11 -18 -12 -18 -37 11 -35 40 -71 120 -79 173
-7 50 -1 52 74 23z m1395 -68 c-4 -27 -18 -72 -31 -101 -24 -54 -79 -132 -93
-132 -4 0 -17 18 -30 40 -12 21 -38 52 -57 69 -30 24 -34 32 -25 48 24 45 162
122 219 123 22 0 23 -3 17 -47z m-1088 -469 l23 -6 -21 -30 c-29 -40 -36 -106
-15 -146 l16 -31 -29 10 c-47 17 -112 80 -137 133 -13 28 -21 52 -19 54 16 16
140 27 182 16z m867 -11 c33 -18 -50 -144 -117 -180 -36 -18 -41 -14 -29 31
11 39 2 94 -22 131 -14 22 -14 24 2 29 24 7 149 -1 166 -11z m-725 -59 c33
-27 91 -106 91 -122 0 -12 -99 -32 -157 -32 -24 0 -43 1 -43 3 0 1 9 20 20 42
22 43 26 99 10 140 -10 25 -10 25 19 11 16 -9 43 -27 60 -42z m495 15 c-17
-48 -10 -98 17 -133 10 -13 15 -26 12 -30 -19 -19 -203 6 -203 28 0 14 25 52
59 90 25 28 108 86 122 86 4 0 0 -18 -7 -41z m-201 -239 c38 -18 35 -49 -10
-92 -58 -55 -72 -60 -119 -39 -79 36 -108 110 -54 139 30 16 142 11 183 -8z"/>
</g>
</svg>
